<svg width="24" height="24" viewBox="0 0 24 24" fill="none" xmlns="http://www.w3.org/2000/svg">
<path d="M2.39983 12.7968V16.2C2.39983 16.9956 2.7159 17.7587 3.27851 18.3213C3.84112 18.8839 4.60418 19.2 5.39983 19.2H18.5998C19.3955 19.2 20.1585 18.8839 20.7212 18.3213C21.2838 17.7587 21.5998 16.9956 21.5998 16.2V7.79995C21.5998 7.0043 21.2838 6.24124 20.7212 5.67863C20.1585 5.11602 19.3955 4.79995 18.5998 4.79995H11.3734L12.1786 5.60635C12.3042 5.73115 12.4182 5.86235 12.5206 5.99995H18.5998C19.0772 5.99995 19.5351 6.18959 19.8726 6.52716C20.2102 6.86472 20.3998 7.32256 20.3998 7.79995V16.2C20.3998 16.6773 20.2102 17.1352 19.8726 17.4727C19.5351 17.8103 19.0772 18 18.5998 18H5.39983C4.92244 18 4.46461 17.8103 4.12704 17.4727C3.78948 17.1352 3.59983 16.6773 3.59983 16.2V13.9968L2.39983 12.7968ZM5.99983 1.79995C5.99983 1.64082 6.06305 1.48821 6.17557 1.37569C6.28809 1.26317 6.4407 1.19995 6.59983 1.19995C6.75896 1.19995 6.91158 1.26317 7.0241 1.37569C7.13662 1.48821 7.19983 1.64082 7.19983 1.79995V3.20875C7.77583 3.23515 8.34463 3.46915 8.78383 3.90835L11.3314 6.45595C11.7814 6.90602 12.0341 7.51636 12.0341 8.15275C12.0341 8.78915 11.7814 9.39949 11.3314 9.84955L7.93783 13.2444C7.71496 13.4673 7.45034 13.6442 7.1591 13.7649C6.86785 13.8855 6.55569 13.9476 6.24043 13.9476C5.92518 13.9476 5.61301 13.8855 5.32177 13.7649C5.03052 13.6442 4.76591 13.4673 4.54303 13.2444L1.99663 10.6968C1.5467 10.2467 1.29395 9.63635 1.29395 8.99995C1.29395 8.36356 1.5467 7.75322 1.99663 7.30315L5.39023 3.90835C5.57383 3.72475 5.78023 3.57715 5.99983 3.46555V1.79995ZM5.99983 6.59995V4.99675L3.19663 7.79995H10.7806C10.7231 7.61242 10.6205 7.44184 10.4818 7.30315L7.93663 4.75675C7.73879 4.55924 7.47819 4.43701 7.19983 4.41115V6.59995C7.19983 6.75908 7.13662 6.91169 7.0241 7.02422C6.91158 7.13674 6.75896 7.19995 6.59983 7.19995C6.4407 7.19995 6.28809 7.13674 6.17557 7.02422C6.06305 6.91169 5.99983 6.75908 5.99983 6.59995ZM2.49343 8.99995C2.49343 9.30715 2.61103 9.61435 2.84503 9.84835L5.39023 12.3936C5.50168 12.5051 5.63403 12.5936 5.7797 12.654C5.92538 12.7144 6.08153 12.7455 6.23923 12.7455C6.39693 12.7455 6.55308 12.7144 6.69876 12.654C6.84444 12.5936 6.97679 12.5051 7.08823 12.3936L10.4818 8.99995H2.49343ZM12.1942 10.1112L12.4522 9.80035C12.5085 9.7373 12.5775 9.68686 12.6546 9.65232C12.7318 9.61777 12.8153 9.59992 12.8998 9.59992C12.9843 9.59992 13.0679 9.61777 13.145 9.65232C13.2222 9.68686 13.2912 9.7373 13.3474 9.80035L13.6054 10.1124C13.7542 10.3008 13.9534 10.5684 14.155 10.8804C14.5366 11.4768 14.9998 12.354 14.9998 13.2C14.9998 14.4108 14.1922 15.6 12.8998 15.6C11.6062 15.6 10.7998 14.4108 10.7998 13.2C10.7998 12.354 11.263 11.4768 11.6446 10.8816C11.845 10.5684 12.0442 10.3008 12.1942 10.1112ZM12.8998 11.1684C12.8151 11.2862 12.7335 11.4063 12.655 11.5284C12.2878 12.102 11.9998 12.726 11.9998 13.2C11.9998 13.5516 12.1198 13.8792 12.2974 14.0988C12.3671 14.1928 12.4579 14.2691 12.5626 14.3214C12.6673 14.3738 12.7828 14.4007 12.8998 14.4C13.0169 14.4007 13.1324 14.3738 13.2371 14.3214C13.3417 14.2691 13.4326 14.1928 13.5022 14.0988C13.6982 13.8404 13.8029 13.5242 13.7998 13.2C13.7998 12.7248 13.5118 12.102 13.1446 11.5284C13.0662 11.4063 12.9845 11.2862 12.8998 11.1684Z" fill="#FFCC00"/>
</svg>
